<svg xmlns="http://www.w3.org/2000/svg" viewBox="0 0 1100 680" preserveAspectRatio="xMidYMid slice">
  <defs><linearGradient id="g" x1="0" y1="0" x2="1" y2="1"><stop stop-color="#dce8f1"/><stop offset="1" stop-color="#f7fafc"/></linearGradient></defs>
  <rect width="1100" height="680" fill="url(#g)"/>
  <rect x="75" y="150" width="235" height="455" fill="#c8d6e1"/>
  <rect x="360" y="70" width="330" height="535" fill="#adbfce"/>
  <rect x="760" y="190" width="240" height="415" fill="#d4dfe8"/>
  <g fill="#123d63" opacity=".44">
    <rect x="115" y="205" width="48" height="56"/><rect x="198" y="205" width="48" height="56"/><rect x="115" y="305" width="48" height="56"/><rect x="198" y="305" width="48" height="56"/>
    <rect x="415" y="130" width="52" height="60"/><rect x="510" y="130" width="52" height="60"/><rect x="605" y="130" width="52" height="60"/>
    <rect x="415" y="235" width="52" height="60"/><rect x="510" y="235" width="52" height="60"/><rect x="605" y="235" width="52" height="60"/>
    <rect x="800" y="250" width="48" height="58"/><rect x="890" y="250" width="48" height="58"/><rect x="800" y="358" width="48" height="58"/><rect x="890" y="358" width="48" height="58"/>
  </g>
  <rect y="605" width="1100" height="75" fill="#123d63"/>
  <rect x="150" y="560" width="285" height="45" rx="22" fill="#d93831"/>
  <rect x="700" y="565" width="240" height="40" rx="20" fill="#fff"/>
</svg>